<?xml version="1.0" encoding="utf-8"?>
<!-- Generator: Adobe Illustrator 16.0.0, SVG Export Plug-In . SVG Version: 6.00 Build 0)  -->
<!DOCTYPE svg PUBLIC "-//W3C//DTD SVG 1.1//EN" "http://www.w3.org/Graphics/SVG/1.1/DTD/svg11.dtd">
<svg version="1.1" id="Layer_1" xmlns="http://www.w3.org/2000/svg" xmlns:xlink="http://www.w3.org/1999/xlink" x="0px" y="0px"
	 width="290.5px" height="89.667px" viewBox="0 0 290.5 89.667" enable-background="new 0 0 290.5 89.667" xml:space="preserve">
<path fill-rule="evenodd" clip-rule="evenodd" fill="#FDDA34" d="M69.131,65.025c0-0.082,0-0.162,0-0.244
	C69.157,64.867,69.153,64.951,69.131,65.025z"/>
<g>
	<g>
		<polygon fill-rule="evenodd" clip-rule="evenodd" fill="#FDAF10" points="29.279,21.643 42.575,13.928 55.872,21.643 
			55.872,37.071 42.575,44.785 29.279,37.071 		"/>
		<polygon fill-rule="evenodd" clip-rule="evenodd" fill="#FDAF10" points="15.1,46.508 28.396,38.793 41.692,46.508 41.692,61.935 
			28.396,69.648 15.1,61.935 		"/>
		<polygon fill-rule="evenodd" clip-rule="evenodd" fill="#FDAF10" points="43.459,46.508 56.754,38.793 70.052,46.508 
			70.052,61.935 56.754,69.648 43.459,61.935 		"/>
	</g>
	<polygon fill-rule="evenodd" clip-rule="evenodd" fill="none" stroke="#6D6E71" stroke-width="4" stroke-miterlimit="10" points="
		10.25,26.956 42.575,8.201 74.899,26.956 74.899,64.466 42.575,83.217 10.25,64.466 	"/>
</g>
<g>
	<path fill="#FDAF10" d="M82.769,65.705V25.714h18.737c4.719,0,8.217,0.976,10.496,2.927c2.278,1.952,3.417,4.216,3.417,6.792
		c0,4.528-2.799,7.533-8.396,9.016c3.331,0.725,5.806,2.014,7.425,3.871c1.619,1.855,2.429,3.957,2.429,6.303
		c0,3.146-1.255,5.779-3.765,7.9c-2.51,2.121-6.379,3.182-11.606,3.182H82.769z M88.494,42.853h10.305
		c4.279,0,7.136-0.688,8.57-2.065c1.434-1.377,2.151-2.993,2.151-4.849c0-1.835-0.77-3.32-2.308-4.453
		c-1.539-1.132-3.834-1.699-6.887-1.699H88.494V42.853z M88.494,61.311h12.699c3.1,0,5.494-0.635,7.183-1.904
		c1.688-1.27,2.533-2.92,2.533-4.951c0-1.426-0.381-2.75-1.145-3.971c-0.763-1.221-1.839-2.162-3.227-2.826
		c-1.388-0.664-3.458-0.996-6.211-0.996H88.494V61.311z"/>
	<path fill="#FDAF10" d="M142.698,56.887l5.066,0.879c-0.926,2.527-2.73,4.619-5.413,6.275c-2.684,1.656-5.841,2.484-9.473,2.484
		c-4.788,0-8.663-1.422-11.624-4.268c-2.961-2.844-4.441-6.572-4.441-11.188c0-4.711,1.538-8.518,4.615-11.421
		c3.076-2.903,6.939-4.354,11.589-4.354c4.58,0,8.263,1.338,11.051,4.014c2.787,2.676,4.216,6.68,4.285,12.012h-25.468
		c0,4.473,1.11,7.49,3.331,9.053c2.221,1.563,4.568,2.344,7.044,2.344C137.725,62.717,140.871,60.773,142.698,56.887z
		 M142.386,47.893c-0.046-1.66-0.37-3.135-0.972-4.424c-0.602-1.29-1.619-2.388-3.053-3.296c-1.435-0.908-3.158-1.362-5.17-1.362
		c-2.707,0-5.002,0.82-6.888,2.461c-1.886,1.641-2.944,3.848-3.175,6.622H142.386z"/>
	<path fill="#FDAF10" d="M174.001,56.887l5.066,0.879c-0.926,2.527-2.73,4.619-5.413,6.275c-2.684,1.656-5.841,2.484-9.473,2.484
		c-4.788,0-8.663-1.422-11.624-4.268c-2.961-2.844-4.441-6.572-4.441-11.188c0-4.711,1.538-8.518,4.615-11.421
		c3.076-2.903,6.939-4.354,11.589-4.354c4.58,0,8.263,1.338,11.051,4.014c2.787,2.676,4.216,6.68,4.285,12.012h-25.468
		c0,4.473,1.11,7.49,3.331,9.053c2.221,1.563,4.568,2.344,7.044,2.344C169.027,62.717,172.173,60.773,174.001,56.887z
		 M173.688,47.893c-0.046-1.66-0.37-3.135-0.972-4.424c-0.602-1.29-1.619-2.388-3.053-3.296c-1.435-0.908-3.158-1.362-5.17-1.362
		c-2.707,0-5.002,0.82-6.888,2.461c-1.886,1.641-2.944,3.848-3.175,6.622H173.688z"/>
	<path fill="#58595B" d="M177.441,55.129l5.344-1.025c2.151,5.449,6.812,8.174,13.983,8.174c3.747,0,6.569-0.672,8.466-2.014
		s2.846-3.141,2.846-5.395c0-1.705-0.723-3.078-2.168-4.117c-1.445-1.037-3.116-1.754-5.011-2.145l-9.477-1.973
		c-2.452-0.529-4.458-1.168-6.02-1.922s-2.886-1.913-3.973-3.477s-1.631-3.354-1.631-5.369c0-3.345,1.492-6.009,4.476-7.995
		c2.984-1.985,6.813-2.978,11.485-2.978c8.605,0,14.261,3.292,16.967,9.873l-5.378,1.348c-0.625-2.344-2.094-4.116-4.407-5.317
		c-2.313-1.201-4.777-1.802-7.391-1.802c-2.591,0-4.898,0.579-6.922,1.737c-2.024,1.158-3.036,2.796-3.036,4.916
		c0,2.963,2.565,4.964,7.695,6.004l8.856,1.754c8.096,1.641,12.145,5.322,12.145,11.047c0,3.457-1.521,6.334-4.563,8.629
		c-3.043,2.295-7.328,3.443-12.856,3.443C187.064,66.525,180.587,62.727,177.441,55.129z"/>
	<path fill="#58595B" d="M232.824,62.57v3.633c-1.92,0.215-3.584,0.322-4.996,0.322c-6.777,0-10.166-2.992-10.166-8.975V39.718
		h-6.211v-3.604h6.211l0.242-7.441l5.066-0.41v7.852h7.842v3.604h-7.842v18.598c0,3.051,1.873,4.576,5.621,4.576
		C229.842,62.893,231.252,62.785,232.824,62.57z"/>
	<path fill="#58595B" d="M260.521,65.705h-5.379c-0.208-0.938-0.416-2.715-0.624-5.332c-2.406,4.102-6.501,6.152-12.283,6.152
		c-3.933,0-6.951-0.881-9.057-2.641c-2.104-1.762-3.157-3.873-3.157-6.338c0-2.994,1.504-5.453,4.511-7.379
		c3.007-1.928,8.119-2.891,15.337-2.891c0.972,0,2.521,0.039,4.649,0.117c0-2.344-0.214-4.039-0.642-5.083
		c-0.429-1.045-1.336-1.88-2.725-2.505c-1.388-0.625-3.215-0.938-5.482-0.938c-5.528,0-8.743,1.777-9.646,5.333l-5.031-0.732
		c1.226-5.45,6.385-8.174,15.476-8.174c4.834,0,8.264,0.904,10.288,2.71c2.023,1.807,3.036,4.937,3.036,9.39v12.568
		C259.792,62.053,260.034,63.967,260.521,65.705z M254.518,50.91c-2.221-0.117-3.909-0.176-5.066-0.176
		c-4.302,0-7.646,0.598-10.027,1.791c-2.383,1.193-3.574,2.936-3.574,5.227c0,1.449,0.643,2.684,1.926,3.701
		c1.284,1.018,3.141,1.527,5.569,1.527c3.284,0,5.985-1.008,8.102-3.025c2.117-2.016,3.175-4.385,3.175-7.107
		C254.621,52.301,254.587,51.654,254.518,50.91z"/>
	<path fill="#58595B" d="M280.893,62.57v3.633c-1.92,0.215-3.585,0.322-4.996,0.322c-6.778,0-10.167-2.992-10.167-8.975V39.718
		h-6.211v-3.604h6.211l0.243-7.441l5.066-0.41v7.852h7.842v3.604h-7.842v18.598c0,3.051,1.873,4.576,5.621,4.576
		C277.909,62.893,279.319,62.785,280.893,62.57z"/>
</g>
<g>
</g>
<g>
</g>
<g>
</g>
<g>
</g>
<g>
</g>
<g>
</g>
<g>
</g>
<g>
</g>
<g>
</g>
<g>
</g>
<g>
</g>
<g>
</g>
<g>
</g>
<g>
</g>
<g>
</g>
</svg>
